{"title":"Stupid 7 (2013) Movie DVD RIP XVID 480P HINDI-PUNJABI MIX GOPI S","uid":8942176,"size":1894243176,"categoryP":"video","categoryS":"movies","magnet":"?xt=urn:btih:aa32a8475c998f50dce4780661481c9cc79da1ad&amp;dn=Stupid+7+%282013%29+Movie+DVD+RIP+XVID+480P+HINDI-PUNJABI+MIX+GOPI+S&amp;tr=udp%3A%2F%2Ftracker.openbittorrent.com%3A80&amp;tr=udp%3A%2F%2Fopen.demonii.com%3A1337&amp;tr=udp%3A%2F%2Ftracker.coppersurfer.tk%3A6969&amp;tr=udp%3A%2F%2Fexodus.desync.com%3A6969","seeders":2,"leechers":2,"uploader":"jatt13","files":14,"time":1379689236,"description":"[img]http://imageshack.us/a/img689/8361/3iwx.jpg[/img]\n\n[img]http://imageshack.us/a/img30/7596/2xmg.jpg[/img]\n\nIMDB [url]http://www.imdb.com/title/tt2552412/[/url]\n\nDirector:Pali Bhupinder Singh\nWriter:Pali Bhupinder Singh\nStars:Jaswinder Bhalla, Gugu Gill, Pukhraj Bhalla\n\nVideo\nID                             : 0\nFormat                         : AVC\nFormat/Info                    : Advanced Video Codec\nFormat profile                 : &lt;a class=&quot;__cf_email__&quot; href=&quot;/cdn-cgi/l/email-protection&quot; data-cfemail=&quot;99d1f0fef1d9d5aab7a9&quot;&gt;[email&amp;#160;protected]&lt;/a&gt;&lt;script cf-hash='f9e31' type=&quot;text/javascript&quot;&gt;\n/* &lt;![CDATA[ */!function(){try{var t=&quot;currentScript&quot;in document?document.currentScript:function(){for(var t=document.getElementsByTagName(&quot;script&quot;),e=t.length;e--;)if(t[e].getAttribute(&quot;cf-hash&quot;))return t[e]}();if(t&amp;&amp;t.previousSibling){var e,r,n,i,c=t.previousSibling,a=c.getAttribute(&quot;data-cfemail&quot;);if(a){for(e=&quot;&quot;,r=parseInt(a.substr(0,2),16),n=2;a.length-n;n+=2)i=parseInt(a.substr(n,2),16)^r,e+=String.fromCharCode(i);e=document.createTextNode(e),c.parentNode.replaceChild(e,c)}}}catch(u){}}();/* ]]&gt; */&lt;/script&gt;\nFormat settings, CABAC         : Yes\nFormat settings, ReFrames      : 4 frames\nCodec ID                       : H264\nDuration                       : 2h 19mn\nWidth                          : 854 pixels\nHeight                         : 360 pixels\nDisplay aspect ratio           : 2.40:1\nFrame rate mode                : Variable\nFrame rate                     : 29.970 fps\nColor space                    : YUV\nChroma subsampling             : 4:2:0\nBit depth                      : 8 bits\nScan type                      : Progressive\nBits/(Pixel*Frame)             : 0.042\nStream size                    : 387 MiB (21%)\nWriting library                : x264 core 138\n\nID                             : 1\nFormat                         : PCM\nFormat settings, Endianness    : Little\nFormat settings, Sign          : Signed\nCodec ID                       : 1\nDuration                       : 2h 19mn\nBit rate mode                  : Constant\nBit rate                       : 1 411.2 Kbps\nChannel(s)                     : 2 channels\nSampling rate                  : 44.1 KHz\nBit depth                      : 16 bits\nStream size                    : 1.37 GiB (78%)\nAlignment                      : Aligned on interleaves\nInterleave, duration           : 33 ms (1.00 video frame)\n\n[img]http://imageshack.us/a/img94/6493/tltz.jpg[/img]\n\n[img]http://imageshack.us/a/img547/144/fjsw.png[/img]\n\n[img]http://imageshack.us/a/img849/6614/5pdg.png[/img]\n\n[img]http://imageshack.us/a/img812/6065/q0lq.png[/img]\n\n[img]http://imageshack.us/a/img802/9307/tsqi.png[/img]\n\n[img]http://imageshack.us/a/img43/5441/m3un.png[/img]\n\n[img]http://imageshack.us/a/img94/6144/bbe9.png[/img]\n\n[img]http://imageshack.us/a/img850/7818/rwvx.png[/img]\n\n[img]http://imageshack.us/a/img51/6320/ver4.png[/img]\n\n[img]http://imageshack.us/a/img191/2843/vaqb.png[/img]","torrent":{"xt":"urn:btih:aa32a8475c998f50dce4780661481c9cc79da1ad","amp;dn":"Stupid+7+%282013%29+Movie+DVD+RIP+XVID+480P+HINDI-PUNJABI+MIX+GOPI+S","amp;tr":["udp%3A%2F%2Ftracker.openbittorrent.com%3A80","udp%3A%2F%2Fopen.demonii.com%3A1337","udp%3A%2F%2Ftracker.coppersurfer.tk%3A6969","udp%3A%2F%2Fexodus.desync.com%3A6969"],"infoHash":"aa32a8475c998f50dce4780661481c9cc79da1ad","infoHashBuffer":{"type":"Buffer","data":[170,50,168,71,92,153,143,80,220,228,120,6,97,72,28,156,199,157,161,173]},"announce":[],"urlList":[]}}